<svg xmlns="http://www.w3.org/2000/svg" viewBox="0 0 24 24" width="24" height="24">
  <path fill="#A6CE39" d="M12 0C5.373 0 0 5.373 0 12s5.373 12 12 12 12-5.373 12-12S18.627 0 12 0z" />
  <path fill="#fff" d="M7.369 4.378c-.525 0-.947.431-.947.947s.422.947.947.947a.95.95 0 00.947-.947c0-.525-.422-.947-.947-.947zm-.722 3.038h1.444v10.041H6.647V7.416zm3.562 0h2.897c2.812 0 4.3 1.831 4.3 5.031 0 3.2-1.488 5.01-4.3 5.01h-2.897V7.416zm1.444 1.303v7.44h1.288c1.781 0 2.684-1.072 2.684-3.725 0-2.641-.903-3.715-2.684-3.715h-1.288z" />
</svg>